<svg width="213" height="67" viewBox="0 0 213 67" fill="none" xmlns="http://www.w3.org/2000/svg">
<path d="M64.613 50.4108C66.0585 52.5801 66.6079 55.2193 66.1474 57.7807C65.6868 60.342 64.2515 62.6287 62.1395 64.166C60.0275 65.7034 57.401 66.3733 54.8052 66.0368C52.2094 65.7003 49.8436 64.3831 48.199 62.3587C47.8862 62.0015 47.58 61.6376 47.2738 61.2671C42.6133 55.6564 38.9917 49.268 36.5775 42.3991C35.5819 39.5634 33.9552 36.9875 31.8184 34.8638C29.6817 32.74 27.0901 31.1231 24.237 30.1336C17.3341 27.7471 10.9115 24.1633 5.26713 19.5485C4.90105 19.2442 4.52831 18.9332 4.17553 18.6223C1.99449 17.0379 0.536024 14.6572 0.120977 12.004C-0.294071 9.35081 0.3683 6.6424 1.96238 4.47459C3.55645 2.30679 5.95165 0.857178 8.62106 0.44465C11.2905 0.0321216 14.0154 0.690472 16.1965 2.27487C18.1716 3.62249 19.9424 5.24437 21.4548 7.09111L22.3134 8.11654C25.6415 12.1852 27.9112 17.1536 31.7119 20.7989L32.4773 21.52C33.201 22.212 34.0936 22.7046 35.0672 22.9492C36.0408 23.1938 37.0617 23.1819 38.0293 22.9147C38.9969 22.6476 39.8777 22.1344 40.5849 21.4258C41.2921 20.7171 41.8012 19.8375 42.0621 18.8737L42.2818 18.0533C43.207 14.6264 43.2402 10.9348 44.5914 7.64683L44.8177 7.09111C45.5344 5.34999 46.6729 3.81195 48.1321 2.61386C49.5912 1.41576 51.3258 0.594769 53.1813 0.223934C55.0368 -0.1469 56.9558 -0.0560739 58.7675 0.488331C60.5791 1.03273 62.2273 2.01383 63.5653 3.34432C64.9034 4.67481 65.8897 6.31342 66.4366 8.11434C66.9836 9.91526 67.0741 11.8226 66.7002 13.6667C66.3262 15.5108 65.4995 17.2344 64.2934 18.6842C63.0873 20.134 61.5394 21.2649 59.7873 21.9764L59.2216 22.208C55.8935 23.5311 52.206 23.5841 48.7582 24.5036L47.9395 24.722C46.4722 25.1108 45.2183 26.0588 44.4495 27.3603C43.6808 28.6619 43.4591 30.2122 43.8326 31.6751C44.077 32.6432 44.5728 33.5306 45.2704 34.2486L45.9959 35.0094C49.6634 38.787 54.6488 41.0297 58.749 44.3508L59.7873 45.191C61.6433 46.6918 63.2729 48.4497 64.6263 50.4108" fill="white"/>
<path d="M13.5007 38.2114C14.479 37.2249 15.6433 36.4396 16.927 35.9004C18.2106 35.3613 19.5886 35.0787 20.9822 35.0689C22.3733 35.0632 23.7522 35.3261 25.0424 35.843C26.9837 36.6292 28.6463 37.9707 29.8195 39.6974C30.9926 41.424 31.6235 43.4581 31.632 45.5416C31.6368 46.9259 31.3657 48.2975 30.8345 49.5772C30.3033 50.8568 29.5224 52.0193 28.5369 52.9975L28.457 53.0835L18.1134 63.1592C16.152 65.0774 13.5075 66.1475 10.7559 66.1364C8.00435 66.1253 5.36864 65.034 3.42295 63.1001C1.47727 61.1662 0.379268 58.5465 0.368128 55.8116C0.356987 53.0768 1.43361 50.4483 3.36348 48.4988L13.5007 38.2114Z" fill="white"/>
<path d="M95.7103 33.8915L86.6779 19.337H94.3059L99.2913 27.7654L100.443 30.6829L101.521 27.7521L106.72 19.3237H113.575L104.23 33.5938L114.075 48.9621H106.533L100.855 39.9449L99.5242 36.895L98.2929 39.9449L92.6019 48.9621H85.7461L95.7103 33.8915Z" fill="white"/>
<path d="M163.423 48.9621H142.896V19.3237H149.199V43.4578H163.423V48.9621ZM166.478 28.2549C167.977 27.6265 169.539 27.1585 171.137 26.859C173.048 26.4908 174.989 26.3069 176.935 26.3099C178.261 26.2769 179.583 26.4625 180.849 26.859C181.801 27.1464 182.66 27.6771 183.341 28.398C184.022 29.119 184.501 30.0049 184.729 30.9674C185.023 32.0138 185.166 33.0963 185.155 34.1826C185.155 35.6248 185.095 37.0472 184.982 38.463C184.869 39.8787 184.809 41.3673 184.809 42.9484C184.807 43.9976 184.881 45.0455 185.029 46.0843C185.159 47.0753 185.381 48.052 185.694 49.0018H180.835L179.857 45.6939H179.398C178.633 46.7116 177.68 47.574 176.589 48.2344C175.256 48.9904 173.736 49.3573 172.202 49.2929C171.189 49.3052 170.181 49.1487 169.22 48.8298C168.374 48.5401 167.592 48.0908 166.917 47.5066C166.291 46.9219 165.782 46.2236 165.42 45.4492C165.074 44.6305 164.9 43.7503 164.907 42.8624C164.907 40.3529 165.746 38.463 167.423 37.1928C169.101 35.9225 171.67 35.261 175.131 35.208C175.932 35.2096 176.732 35.2804 177.521 35.4197C178.315 35.5344 178.867 35.6204 179.178 35.6778C179.256 35.1719 179.298 34.6613 179.304 34.1495C179.342 33.7209 179.289 33.2893 179.151 32.8817C179.012 32.4741 178.79 32.0994 178.499 31.7811C177.96 31.2717 176.948 31.0203 175.477 31.0203C174.129 31.0176 172.787 31.1888 171.483 31.5297C170.309 31.8132 169.169 32.2213 168.082 32.747L166.478 28.2549ZM174.272 44.556C175.412 44.6148 176.538 44.2884 177.467 43.6298C178.181 43.1076 178.779 42.4457 179.225 41.6848V39.1378C179.008 39.0643 178.785 39.009 178.559 38.9724C178.279 38.9128 177.953 38.8599 177.58 38.8004C177.228 38.7402 176.872 38.6983 176.516 38.6747C176.176 38.6747 175.85 38.6284 175.577 38.6284C174.379 38.5394 173.184 38.8363 172.169 39.4752C171.829 39.6966 171.55 39.9989 171.357 40.3547C171.164 40.7105 171.063 41.1086 171.064 41.5128C171.033 41.9318 171.093 42.3525 171.24 42.7463C171.387 43.1402 171.618 43.4979 171.916 43.7952C172.585 44.3246 173.425 44.5949 174.279 44.556H174.272ZM191.379 19.3237H197.369V28.6386H197.882C198.597 27.8539 199.485 27.2448 200.478 26.859C201.602 26.4061 202.806 26.1812 204.019 26.1974C206.912 26.1974 209.113 27.1435 210.621 29.0356C212.13 30.9277 212.896 33.6644 212.918 37.2457C212.931 39.0167 212.625 40.7757 212.013 42.439C211.541 43.8745 210.749 45.185 209.693 46.2714C208.638 47.3579 207.349 48.192 205.922 48.7107C204.321 49.2663 202.633 49.5373 200.937 49.5112C199.025 49.5307 197.116 49.3756 195.232 49.0481C193.918 48.8529 192.627 48.5271 191.379 48.0756V19.3237ZM197.369 43.9209C197.931 44.2029 198.536 44.3906 199.16 44.4766C199.825 44.5296 200.491 44.556 201.25 44.556C204.937 44.556 206.783 42.1567 206.787 37.3581C206.787 35.3293 206.404 33.7857 205.636 32.7272C205.25 32.1955 204.736 31.7694 204.14 31.4883C203.544 31.2073 202.886 31.0804 202.228 31.1195C201.122 31.0661 200.029 31.3777 199.12 32.006C198.287 32.6978 197.678 33.6183 197.369 34.6523V43.9209Z" fill="white"/>
<path d="M128.145 38.3769C131.086 38.3769 133.47 36.0073 133.47 33.0843C133.47 30.1613 131.086 27.7917 128.145 27.7917C125.205 27.7917 122.821 30.1613 122.821 33.0843C122.821 36.0073 125.205 38.3769 128.145 38.3769Z" fill="white"/>
</svg>
