<svg width="400" height="400" viewBox="0 0 400 400" xmlns="http://www.w3.org/2000/svg">
  <path d="
    M200,100 
    C250,50 300,150 250,200 
    C200,250 300,300 220,280 
    C150,260 120,320 180,300 
    C240,280 260,340 200,360 
    C140,380 100,300 130,250 
    C160,200 120,180 150,130 
    C180,80 200,120 200,100 
    Z
    M200,150 
    C230,170 220,210 200,220 
    C180,230 160,200 170,180 
    C180,160 190,160 200,150 
    Z"
    fill="none" stroke="blue" stroke-width="1" stroke-linecap="round" stroke-linejoin="round"/>
</svg>